M48
; DRILL file {KiCad (5.1.4)-1} date 5/6/2021 12:29:49 PM
; FORMAT={-:-/ absolute / inch / decimal}
; #@! TF.CreationDate,2021-05-06T12:29:49-04:00
; #@! TF.GenerationSoftware,Kicad,Pcbnew,(5.1.4)-1
; #@! TF.FileFunction,Plated,1,2,PTH
FMAT,2
INCH
T1C0.0157
T2C0.0256
T3C0.0300
T4C0.0394
T5C0.0402
%
G90
G05
T1
X4.1819Y-4.0831
X4.2043Y-3.6016
X4.4Y-4.0819
X4.4252Y-3.602
X4.6055Y-4.0787
X4.6654Y-3.6012
X4.828Y-4.0787
X4.8567Y-3.6016
X5.0634Y-3.3559
X5.4122Y-4.2252
X5.6827Y-3.202
X5.8161Y-3.1425
X5.8539Y-3.061
X5.9154Y-3.5839
X5.9821Y-3.1875
X5.9858Y-3.2291
X5.9917Y-3.3402
X5.9949Y-3.0402
X5.9965Y-2.6339
X6.0213Y-2.3016
X6.0244Y-3.0811
X6.0969Y-3.5051
X6.1764Y-2.8965
X6.198Y-3.5839
X6.2303Y-2.8953
X6.2472Y-3.3547
X6.2831Y-2.8957
X6.2898Y-3.5555
X6.4028Y-3.3941
X6.4226Y-2.3453
X6.4339Y-3.4559
X7.0909Y-4.172
X7.3043Y-4.0094
T2
X6.6717Y-2.0366
X6.6717Y-2.0866
X6.7217Y-2.0366
X6.7217Y-2.0866
X6.7717Y-2.0366
X6.7717Y-2.0866
X6.8217Y-2.0366
X6.8217Y-2.0866
X6.8717Y-2.0366
X6.8717Y-2.0866
T3
X3.3276Y-3.8276
X3.3276Y-3.9276
X3.3276Y-4.0276
X3.3276Y-4.1276
X4.0276Y-3.7276
X4.0276Y-3.8276
X4.0276Y-3.9276
X4.0276Y-4.0276
X4.0276Y-4.1276
X4.0276Y-4.2276
X3.228Y-3.511
X3.328Y-3.511
X3.428Y-3.511
X3.528Y-3.511
X3.628Y-3.511
X3.728Y-3.511
X3.828Y-3.511
X3.928Y-3.511
X4.028Y-3.511
X7.5465Y-4.1071
X7.5465Y-4.2071
X7.6465Y-4.1071
X7.6465Y-4.2071
X7.7465Y-4.1071
X7.7465Y-4.2071
X7.8465Y-4.1071
X7.8465Y-4.2071
X7.9465Y-4.1071
X7.9465Y-4.2071
X8.0465Y-4.1071
X8.0465Y-4.2071
X8.1465Y-4.1071
X8.1465Y-4.2071
X8.2465Y-4.1071
X8.2465Y-4.2071
T4
X5.0634Y-4.1197
X5.1634Y-4.1197
X5.2634Y-4.1197
X5.3634Y-4.1197
X5.4634Y-4.1197
X5.5634Y-4.1197
X5.6634Y-4.1197
X5.7634Y-4.1197
X5.8634Y-4.1197
X5.9634Y-4.1197
X6.0634Y-4.1197
X6.1634Y-4.1197
X6.2634Y-4.1197
X6.3634Y-4.1197
X6.4634Y-4.1197
T5
X5.3937Y-2.0866
X5.5118Y-2.0866
X5.6299Y-2.0866
X5.748Y-2.0866
X5.8661Y-2.0866
X5.9843Y-2.0866
X6.1024Y-2.0866
X6.2205Y-2.0866
X6.3386Y-2.0866
T0
M30
